<svg xmlns="http://www.w3.org/2000/svg" xmlns:xlink="http://www.w3.org/1999/xlink" width="500" zoomAndPan="magnify" viewBox="0 0 375 270" height="350" preserveAspectRatio="xMidYMid meet" version="1.0"><defs><g/><clipPath id="4159d1da6b"><path d="M 0.800781 73 L 315.679688 73 L 315.679688 256.800781 L 0.800781 256.800781 Z M 0.800781 73 " clip-rule="nonzero"/></clipPath><clipPath id="a2a4b6a3f1"><rect x="0" width="316" y="0" height="184"/></clipPath><clipPath id="09d66038cb"><rect x="0" width="38" y="0" height="50"/></clipPath><clipPath id="5106235f6a"><rect x="0" width="316" y="0" height="257"/></clipPath></defs><g transform="matrix(1, 0, 0, 1, 16, 0)"><g clip-path="url(#5106235f6a)"><g fill="#ffffff" fill-opacity="1"><g transform="translate(24.770548, 130.854108)"><g><path d="M 28.515625 0 C 23.234375 0 19.097656 -1.507812 16.109375 -4.53125 C 13.128906 -7.5625 11.640625 -11.675781 11.640625 -16.875 L 11.640625 -74.234375 L 24.90625 -74.234375 L 24.90625 -17.453125 C 24.90625 -15.671875 25.445312 -14.21875 26.53125 -13.09375 C 27.613281 -11.96875 29.046875 -11.40625 30.828125 -11.40625 L 43.28125 -11.40625 L 43.28125 0 Z M 1.390625 -47.9375 L 1.390625 -59.34375 L 43.40625 -59.34375 L 43.40625 -47.9375 Z M 1.390625 -47.9375 "/></g></g></g><g fill="#ffffff" fill-opacity="1"><g transform="translate(68.639498, 130.854108)"><g><path d="M 36.296875 1.390625 C 30.171875 1.390625 24.742188 0.015625 20.015625 -2.734375 C 15.285156 -5.484375 11.539062 -9.203125 8.78125 -13.890625 C 6.03125 -18.585938 4.65625 -23.847656 4.65625 -29.671875 C 4.65625 -35.492188 6.03125 -40.75 8.78125 -45.4375 C 11.539062 -50.132812 15.285156 -53.859375 20.015625 -56.609375 C 24.742188 -59.359375 30.171875 -60.734375 36.296875 -60.734375 C 42.347656 -60.734375 47.738281 -59.359375 52.46875 -56.609375 C 57.207031 -53.859375 60.953125 -50.15625 63.703125 -45.5 C 66.460938 -40.84375 67.84375 -35.566406 67.84375 -29.671875 C 67.84375 -23.847656 66.460938 -18.585938 63.703125 -13.890625 C 60.953125 -9.203125 57.207031 -5.484375 52.46875 -2.734375 C 47.738281 0.015625 42.347656 1.390625 36.296875 1.390625 Z M 36.296875 -10 C 39.941406 -10 43.125 -10.875 45.84375 -12.625 C 48.5625 -14.375 50.65625 -16.722656 52.125 -19.671875 C 53.601562 -22.617188 54.34375 -25.953125 54.34375 -29.671875 C 54.34375 -33.316406 53.601562 -36.628906 52.125 -39.609375 C 50.65625 -42.597656 48.5625 -44.96875 45.84375 -46.71875 C 43.125 -48.46875 39.941406 -49.34375 36.296875 -49.34375 C 32.578125 -49.34375 29.378906 -48.46875 26.703125 -46.71875 C 24.023438 -44.96875 21.929688 -42.617188 20.421875 -39.671875 C 18.910156 -36.722656 18.15625 -33.390625 18.15625 -29.671875 C 18.15625 -26.023438 18.910156 -22.707031 20.421875 -19.71875 C 21.929688 -16.738281 24.023438 -14.375 26.703125 -12.625 C 29.378906 -10.875 32.578125 -10 36.296875 -10 Z M 36.296875 -10 "/></g></g></g><g fill="#ffffff" fill-opacity="1"><g transform="translate(137.061202, 130.854108)"><g><path d="M 35.609375 1.390625 C 30.878906 1.390625 26.59375 0.632812 22.75 -0.875 C 18.90625 -2.382812 15.644531 -4.570312 12.96875 -7.4375 C 10.289062 -10.3125 8.234375 -13.707031 6.796875 -17.625 C 5.367188 -21.539062 4.65625 -25.867188 4.65625 -30.609375 C 4.65625 -36.648438 5.875 -41.921875 8.3125 -46.421875 C 10.757812 -50.921875 14.15625 -54.429688 18.5 -56.953125 C 22.84375 -59.472656 27.804688 -60.734375 33.390625 -60.734375 C 36.179688 -60.734375 38.816406 -60.304688 41.296875 -59.453125 C 43.785156 -58.609375 46.035156 -57.410156 48.046875 -55.859375 C 50.066406 -54.304688 51.695312 -52.484375 52.9375 -50.390625 L 53.0625 -50.390625 L 53.0625 -84.9375 L 66.4375 -84.9375 L 66.4375 -30.375 C 66.4375 -23.851562 65.132812 -18.207031 62.53125 -13.4375 C 59.9375 -8.664062 56.332031 -5 51.71875 -2.4375 C 47.101562 0.113281 41.734375 1.390625 35.609375 1.390625 Z M 35.609375 -10 C 39.015625 -10 42.015625 -10.832031 44.609375 -12.5 C 47.210938 -14.175781 49.25 -16.488281 50.71875 -19.4375 C 52.195312 -22.382812 52.9375 -25.796875 52.9375 -29.671875 C 52.9375 -33.546875 52.195312 -36.957031 50.71875 -39.90625 C 49.25 -42.851562 47.210938 -45.160156 44.609375 -46.828125 C 42.015625 -48.503906 38.972656 -49.34375 35.484375 -49.34375 C 32.148438 -49.34375 29.164062 -48.488281 26.53125 -46.78125 C 23.894531 -45.070312 21.835938 -42.742188 20.359375 -39.796875 C 18.890625 -36.847656 18.15625 -33.472656 18.15625 -29.671875 C 18.15625 -25.796875 18.890625 -22.382812 20.359375 -19.4375 C 21.835938 -16.488281 23.914062 -14.175781 26.59375 -12.5 C 29.269531 -10.832031 32.273438 -10 35.609375 -10 Z M 35.609375 -10 "/></g></g></g><g fill="#ffffff" fill-opacity="1"><g transform="translate(206.995645, 130.854108)"><g><path d="M 36.296875 1.390625 C 30.171875 1.390625 24.742188 0.015625 20.015625 -2.734375 C 15.285156 -5.484375 11.539062 -9.203125 8.78125 -13.890625 C 6.03125 -18.585938 4.65625 -23.847656 4.65625 -29.671875 C 4.65625 -35.492188 6.03125 -40.75 8.78125 -45.4375 C 11.539062 -50.132812 15.285156 -53.859375 20.015625 -56.609375 C 24.742188 -59.359375 30.171875 -60.734375 36.296875 -60.734375 C 42.347656 -60.734375 47.738281 -59.359375 52.46875 -56.609375 C 57.207031 -53.859375 60.953125 -50.15625 63.703125 -45.5 C 66.460938 -40.84375 67.84375 -35.566406 67.84375 -29.671875 C 67.84375 -23.847656 66.460938 -18.585938 63.703125 -13.890625 C 60.953125 -9.203125 57.207031 -5.484375 52.46875 -2.734375 C 47.738281 0.015625 42.347656 1.390625 36.296875 1.390625 Z M 36.296875 -10 C 39.941406 -10 43.125 -10.875 45.84375 -12.625 C 48.5625 -14.375 50.65625 -16.722656 52.125 -19.671875 C 53.601562 -22.617188 54.34375 -25.953125 54.34375 -29.671875 C 54.34375 -33.316406 53.601562 -36.628906 52.125 -39.609375 C 50.65625 -42.597656 48.5625 -44.96875 45.84375 -46.71875 C 43.125 -48.46875 39.941406 -49.34375 36.296875 -49.34375 C 32.578125 -49.34375 29.378906 -48.46875 26.703125 -46.71875 C 24.023438 -44.96875 21.929688 -42.617188 20.421875 -39.671875 C 18.910156 -36.722656 18.15625 -33.390625 18.15625 -29.671875 C 18.15625 -26.023438 18.910156 -22.707031 20.421875 -19.71875 C 21.929688 -16.738281 24.023438 -14.375 26.703125 -12.625 C 29.378906 -10.875 32.578125 -10 36.296875 -10 Z M 36.296875 -10 "/></g></g></g><g clip-path="url(#4159d1da6b)"><g transform="matrix(1, 0, 0, 1, 0, 73)"><g clip-path="url(#a2a4b6a3f1)"><g fill="#ffffff" fill-opacity="1"><g transform="translate(1.475851, 132.142178)"><g/></g></g><g fill="#ffffff" fill-opacity="1"><g transform="translate(24.341243, 132.142178)"><g><path d="M 35.953125 1.375 C 29.984375 1.375 24.566406 0.0546875 19.703125 -2.578125 C 14.835938 -5.222656 10.945312 -8.878906 8.03125 -13.546875 C 5.125 -18.222656 3.671875 -23.585938 3.671875 -29.640625 C 3.671875 -35.617188 5.125 -40.941406 8.03125 -45.609375 C 10.945312 -50.285156 14.851562 -53.941406 19.75 -56.578125 C 24.65625 -59.222656 30.097656 -60.546875 36.078125 -60.546875 C 42.046875 -60.546875 47.460938 -59.222656 52.328125 -56.578125 C 57.191406 -53.941406 61.0625 -50.285156 63.9375 -45.609375 C 66.8125 -40.941406 68.25 -35.617188 68.25 -29.640625 C 68.25 -23.585938 66.8125 -18.222656 63.9375 -13.546875 C 61.0625 -8.878906 57.191406 -5.222656 52.328125 -2.578125 C 47.460938 0.0546875 42.003906 1.375 35.953125 1.375 Z M 35.953125 -16.3125 C 38.410156 -16.3125 40.578125 -16.882812 42.453125 -18.03125 C 44.328125 -19.1875 45.757812 -20.773438 46.75 -22.796875 C 47.75 -24.828125 48.25 -27.109375 48.25 -29.640625 C 48.25 -32.242188 47.75 -34.539062 46.75 -36.53125 C 45.757812 -38.519531 44.328125 -40.085938 42.453125 -41.234375 C 40.578125 -42.390625 38.410156 -42.96875 35.953125 -42.96875 C 33.503906 -42.96875 31.359375 -42.390625 29.515625 -41.234375 C 27.679688 -40.085938 26.25 -38.519531 25.21875 -36.53125 C 24.1875 -34.539062 23.671875 -32.242188 23.671875 -29.640625 C 23.671875 -27.109375 24.1875 -24.828125 25.21875 -22.796875 C 26.25 -20.773438 27.679688 -19.1875 29.515625 -18.03125 C 31.359375 -16.882812 33.503906 -16.3125 35.953125 -16.3125 Z M 35.953125 -16.3125 "/></g></g></g><g fill="#ffffff" fill-opacity="1"><g transform="translate(88.67838, 132.142178)"><g><path d="M 5.40625 0 L 5.40625 -41.359375 C 5.40625 -46.867188 6.992188 -51.210938 10.171875 -54.390625 C 13.347656 -57.578125 17.769531 -59.171875 23.4375 -59.171875 L 41.59375 -59.171875 L 41.59375 -43.546875 L 29.53125 -43.546875 C 28.300781 -43.546875 27.300781 -43.160156 26.53125 -42.390625 C 25.769531 -41.628906 25.390625 -40.632812 25.390625 -39.40625 L 25.390625 0 Z M 5.40625 0 "/></g></g></g><g fill="#ffffff" fill-opacity="1"><g transform="translate(124.178582, 132.142178)"><g><path d="M 36.078125 1.5 C 31.097656 1.5 26.632812 0.710938 22.6875 -0.859375 C 18.75 -2.429688 15.359375 -4.648438 12.515625 -7.515625 C 9.679688 -10.390625 7.519531 -13.757812 6.03125 -17.625 C 4.539062 -21.5 3.796875 -25.8125 3.796875 -30.5625 C 3.796875 -36.53125 5.019531 -41.753906 7.46875 -46.234375 C 9.914062 -50.722656 13.265625 -54.226562 17.515625 -56.75 C 21.765625 -59.28125 26.609375 -60.546875 32.046875 -60.546875 C 34.273438 -60.546875 36.363281 -60.296875 38.3125 -59.796875 C 40.269531 -59.296875 42.070312 -58.53125 43.71875 -57.5 C 45.363281 -56.46875 46.757812 -55.1875 47.90625 -53.65625 L 48.375 -53.65625 L 48.375 -83.875 L 68.359375 -83.875 L 68.359375 -30.671875 C 68.359375 -24.160156 67.015625 -18.507812 64.328125 -13.71875 C 61.648438 -8.9375 57.898438 -5.203125 53.078125 -2.515625 C 48.253906 0.160156 42.585938 1.5 36.078125 1.5 Z M 36.078125 -15.859375 C 38.523438 -15.859375 40.628906 -16.453125 42.390625 -17.640625 C 44.148438 -18.828125 45.53125 -20.453125 46.53125 -22.515625 C 47.53125 -24.585938 48.03125 -26.925781 48.03125 -29.53125 C 48.03125 -32.050781 47.53125 -34.304688 46.53125 -36.296875 C 45.53125 -38.296875 44.148438 -39.890625 42.390625 -41.078125 C 40.628906 -42.265625 38.523438 -42.859375 36.078125 -42.859375 C 33.703125 -42.859375 31.613281 -42.265625 29.8125 -41.078125 C 28.007812 -39.890625 26.609375 -38.296875 25.609375 -36.296875 C 24.617188 -34.304688 24.125 -32.050781 24.125 -29.53125 C 24.125 -26.925781 24.617188 -24.585938 25.609375 -22.515625 C 26.609375 -20.453125 28.007812 -18.828125 29.8125 -17.640625 C 31.613281 -16.453125 33.703125 -15.859375 36.078125 -15.859375 Z M 36.078125 -15.859375 "/></g></g></g><g fill="#ffffff" fill-opacity="1"><g transform="translate(190.353929, 132.142178)"><g><path d="M 37.796875 0 C 31.128906 0 25.25 -1.1875 20.15625 -3.5625 C 15.0625 -5.9375 11.039062 -9.34375 8.09375 -13.78125 C 5.144531 -18.226562 3.671875 -23.476562 3.671875 -29.53125 C 3.671875 -36.269531 5.085938 -41.9375 7.921875 -46.53125 C 10.753906 -51.125 14.503906 -54.609375 19.171875 -56.984375 C 23.847656 -59.359375 28.867188 -60.546875 34.234375 -60.546875 C 40.054688 -60.546875 45.09375 -59.335938 49.34375 -56.921875 C 53.59375 -54.515625 56.882812 -51.128906 59.21875 -46.765625 C 61.5625 -42.398438 62.734375 -37.304688 62.734375 -31.484375 C 62.734375 -30.253906 62.675781 -28.851562 62.5625 -27.28125 C 62.445312 -25.71875 62.234375 -24.398438 61.921875 -23.328125 L 24.359375 -23.328125 C 24.816406 -21.640625 25.5625 -20.238281 26.59375 -19.125 C 27.625 -18.019531 29 -17.195312 30.71875 -16.65625 C 32.445312 -16.125 34.425781 -15.859375 36.65625 -15.859375 L 56.1875 -15.859375 L 56.1875 0 Z M 23.671875 -34.921875 L 43.890625 -34.921875 C 43.890625 -36.078125 43.734375 -37.128906 43.421875 -38.078125 C 43.117188 -39.035156 42.695312 -39.9375 42.15625 -40.78125 C 41.625 -41.625 40.972656 -42.351562 40.203125 -42.96875 C 39.441406 -43.582031 38.523438 -44.039062 37.453125 -44.34375 C 36.378906 -44.65625 35.226562 -44.8125 34 -44.8125 C 32.394531 -44.8125 30.976562 -44.539062 29.75 -44 C 28.53125 -43.46875 27.5 -42.757812 26.65625 -41.875 C 25.8125 -41 25.140625 -39.96875 24.640625 -38.78125 C 24.140625 -37.59375 23.816406 -36.304688 23.671875 -34.921875 Z M 23.671875 -34.921875 "/></g></g></g><g fill="#ffffff" fill-opacity="1"><g transform="translate(249.061548, 132.142178)"><g><path d="M 5.75 0 L 5.75 -34 C 5.75 -39.0625 6.992188 -43.601562 9.484375 -47.625 C 11.972656 -51.644531 15.492188 -54.800781 20.046875 -57.09375 C 24.609375 -59.394531 29.953125 -60.546875 36.078125 -60.546875 C 42.203125 -60.546875 47.484375 -59.394531 51.921875 -57.09375 C 56.367188 -54.800781 59.78125 -51.644531 62.15625 -47.625 C 64.53125 -43.601562 65.71875 -39.0625 65.71875 -34 L 65.71875 0 L 45.71875 0 L 45.71875 -33.09375 C 45.71875 -34.851562 45.296875 -36.476562 44.453125 -37.96875 C 43.617188 -39.46875 42.453125 -40.675781 40.953125 -41.59375 C 39.460938 -42.507812 37.722656 -42.96875 35.734375 -42.96875 C 33.816406 -42.96875 32.070312 -42.507812 30.5 -41.59375 C 28.925781 -40.675781 27.71875 -39.46875 26.875 -37.96875 C 26.039062 -36.476562 25.625 -34.851562 25.625 -33.09375 L 25.625 0 Z M 5.75 0 "/></g></g></g></g></g></g><g transform="matrix(1, 0, 0, 1, 276, 99)"><g clip-path="url(#09d66038cb)"><g fill="#ffffff" fill-opacity="1"><g transform="translate(0.469753, 35.569488)"><g><path d="M 9.90625 0 C 8.144531 0 6.59375 -0.328125 5.25 -0.984375 C 3.914062 -1.640625 2.878906 -2.550781 2.140625 -3.71875 C 1.398438 -4.882812 1.03125 -6.238281 1.03125 -7.78125 C 1.03125 -9.476562 1.382812 -10.9375 2.09375 -12.15625 C 2.800781 -13.375 3.75 -14.3125 4.9375 -14.96875 C 6.125 -15.625 7.4375 -15.953125 8.875 -15.953125 C 10.507812 -15.953125 11.878906 -15.609375 12.984375 -14.921875 C 14.085938 -14.234375 14.921875 -13.296875 15.484375 -12.109375 C 16.054688 -10.921875 16.34375 -9.566406 16.34375 -8.046875 C 16.34375 -7.785156 16.328125 -7.476562 16.296875 -7.125 C 16.273438 -6.769531 16.242188 -6.492188 16.203125 -6.296875 L 5.984375 -6.296875 C 6.109375 -5.765625 6.34375 -5.316406 6.6875 -4.953125 C 7.03125 -4.585938 7.460938 -4.316406 7.984375 -4.140625 C 8.515625 -3.972656 9.101562 -3.890625 9.75 -3.890625 L 14.53125 -3.890625 L 14.53125 0 Z M 5.859375 -9.234375 L 11.796875 -9.234375 C 11.753906 -9.554688 11.691406 -9.867188 11.609375 -10.171875 C 11.523438 -10.484375 11.394531 -10.753906 11.21875 -10.984375 C 11.050781 -11.210938 10.851562 -11.414062 10.625 -11.59375 C 10.40625 -11.769531 10.148438 -11.90625 9.859375 -12 C 9.566406 -12.101562 9.238281 -12.15625 8.875 -12.15625 C 8.40625 -12.15625 7.988281 -12.070312 7.625 -11.90625 C 7.257812 -11.75 6.957031 -11.53125 6.71875 -11.25 C 6.476562 -10.976562 6.289062 -10.664062 6.15625 -10.3125 C 6.019531 -9.957031 5.921875 -9.597656 5.859375 -9.234375 Z M 5.859375 -9.234375 "/></g></g></g><g fill="#ffffff" fill-opacity="1"><g transform="translate(17.572803, 35.569488)"><g><path d="M 1.765625 0 L 1.765625 -8.96875 C 1.765625 -10.257812 2.078125 -11.429688 2.703125 -12.484375 C 3.328125 -13.546875 4.222656 -14.390625 5.390625 -15.015625 C 6.554688 -15.640625 7.941406 -15.953125 9.546875 -15.953125 C 11.160156 -15.953125 12.539062 -15.640625 13.6875 -15.015625 C 14.832031 -14.390625 15.707031 -13.546875 16.3125 -12.484375 C 16.925781 -11.429688 17.234375 -10.257812 17.234375 -8.96875 L 17.234375 0 L 12.515625 0 L 12.515625 -8.84375 C 12.515625 -9.394531 12.382812 -9.894531 12.125 -10.34375 C 11.863281 -10.800781 11.503906 -11.164062 11.046875 -11.4375 C 10.585938 -11.71875 10.078125 -11.859375 9.515625 -11.859375 C 8.921875 -11.859375 8.394531 -11.71875 7.9375 -11.4375 C 7.488281 -11.164062 7.128906 -10.800781 6.859375 -10.34375 C 6.597656 -9.894531 6.46875 -9.394531 6.46875 -8.84375 L 6.46875 0 Z M 1.765625 0 "/></g></g></g></g></g></g></g></svg>