<svg xmlns="http://www.w3.org/2000/svg" xmlns:xlink="http://www.w3.org/1999/xlink" width="500" zoomAndPan="magnify" viewBox="0 0 375 270" height="350" preserveAspectRatio="xMidYMid meet" version="1.0"><defs><g/><clipPath id="8f27e27421"><rect x="0" width="260" y="0" height="188"/></clipPath><clipPath id="9fdd1ef062"><path d="M 0.199219 69 L 328.28125 69 L 328.28125 259.441406 L 0.199219 259.441406 Z M 0.199219 69 " clip-rule="nonzero"/></clipPath><clipPath id="2fd3d7d905"><path d="M 0.199219 136 L 1 136 L 1 137 L 0.199219 137 Z M 0.199219 136 " clip-rule="nonzero"/></clipPath><clipPath id="7077f17e1f"><rect x="0" width="329" y="0" height="191"/></clipPath><clipPath id="ea977ebd8b"><rect x="0" width="39" y="0" height="51"/></clipPath><clipPath id="81d440da57"><rect x="0" width="329" y="0" height="260"/></clipPath></defs><g transform="matrix(1, 0, 0, 1, 13, 0)"><g clip-path="url(#81d440da57)"><g transform="matrix(1, 0, 0, 1, 29, 0)"><g clip-path="url(#8f27e27421)"><g fill="#ffffff" fill-opacity="1"><g transform="translate(1.093724, 134.048925)"><g><path d="M 29.34375 0 C 23.914062 0 19.660156 -1.554688 16.578125 -4.671875 C 13.503906 -7.785156 11.96875 -12.015625 11.96875 -17.359375 L 11.96875 -76.40625 L 25.625 -76.40625 L 25.625 -17.96875 C 25.625 -16.125 26.179688 -14.625 27.296875 -13.46875 C 28.421875 -12.3125 29.898438 -11.734375 31.734375 -11.734375 L 44.546875 -11.734375 L 44.546875 0 Z M 1.4375 -49.34375 L 1.4375 -61.078125 L 44.671875 -61.078125 L 44.671875 -49.34375 Z M 1.4375 -49.34375 "/></g></g></g><g fill="#ffffff" fill-opacity="1"><g transform="translate(46.238214, 134.048925)"><g><path d="M 37.359375 1.4375 C 31.054688 1.4375 25.46875 0.0195312 20.59375 -2.8125 C 15.726562 -5.644531 11.878906 -9.476562 9.046875 -14.3125 C 6.210938 -19.144531 4.796875 -24.550781 4.796875 -30.53125 C 4.796875 -36.519531 6.210938 -41.925781 9.046875 -46.75 C 11.878906 -51.582031 15.726562 -55.414062 20.59375 -58.25 C 25.46875 -61.09375 31.054688 -62.515625 37.359375 -62.515625 C 43.585938 -62.515625 49.132812 -61.09375 54 -58.25 C 58.875 -55.414062 62.726562 -51.601562 65.5625 -46.8125 C 68.394531 -42.03125 69.8125 -36.601562 69.8125 -30.53125 C 69.8125 -24.550781 68.394531 -19.144531 65.5625 -14.3125 C 62.726562 -9.476562 58.875 -5.644531 54 -2.8125 C 49.132812 0.0195312 43.585938 1.4375 37.359375 1.4375 Z M 37.359375 -10.296875 C 41.109375 -10.296875 44.378906 -11.191406 47.171875 -12.984375 C 49.972656 -14.785156 52.128906 -17.203125 53.640625 -20.234375 C 55.160156 -23.265625 55.921875 -26.695312 55.921875 -30.53125 C 55.921875 -34.289062 55.160156 -37.707031 53.640625 -40.78125 C 52.128906 -43.851562 49.972656 -46.285156 47.171875 -48.078125 C 44.378906 -49.878906 41.109375 -50.78125 37.359375 -50.78125 C 33.523438 -50.78125 30.226562 -49.878906 27.46875 -48.078125 C 24.71875 -46.285156 22.566406 -43.867188 21.015625 -40.828125 C 19.460938 -37.796875 18.6875 -34.363281 18.6875 -30.53125 C 18.6875 -26.78125 19.460938 -23.367188 21.015625 -20.296875 C 22.566406 -17.222656 24.71875 -14.785156 27.46875 -12.984375 C 30.226562 -11.191406 33.523438 -10.296875 37.359375 -10.296875 Z M 37.359375 -10.296875 "/></g></g></g><g fill="#ffffff" fill-opacity="1"><g transform="translate(116.649358, 134.048925)"><g><path d="M 36.640625 1.4375 C 31.773438 1.4375 27.363281 0.660156 23.40625 -0.890625 C 19.457031 -2.453125 16.101562 -4.707031 13.34375 -7.65625 C 10.59375 -10.613281 8.476562 -14.109375 7 -18.140625 C 5.53125 -22.171875 4.796875 -26.625 4.796875 -31.5 C 4.796875 -37.71875 6.050781 -43.140625 8.5625 -47.765625 C 11.070312 -52.398438 14.5625 -56.015625 19.03125 -58.609375 C 23.507812 -61.210938 28.625 -62.515625 34.375 -62.515625 C 37.238281 -62.515625 39.945312 -62.070312 42.5 -61.1875 C 45.0625 -60.3125 47.378906 -59.070312 49.453125 -57.46875 C 51.523438 -55.875 53.203125 -54.003906 54.484375 -51.859375 L 54.609375 -51.859375 L 54.609375 -87.421875 L 68.375 -87.421875 L 68.375 -31.25 C 68.375 -24.550781 67.035156 -18.742188 64.359375 -13.828125 C 61.691406 -8.921875 57.984375 -5.148438 53.234375 -2.515625 C 48.484375 0.117188 42.953125 1.4375 36.640625 1.4375 Z M 36.640625 -10.296875 C 40.148438 -10.296875 43.242188 -11.15625 45.921875 -12.875 C 48.597656 -14.59375 50.691406 -16.96875 52.203125 -20 C 53.722656 -23.03125 54.484375 -26.539062 54.484375 -30.53125 C 54.484375 -34.53125 53.722656 -38.046875 52.203125 -41.078125 C 50.691406 -44.109375 48.597656 -46.484375 45.921875 -48.203125 C 43.242188 -49.921875 40.113281 -50.78125 36.53125 -50.78125 C 33.09375 -50.78125 30.015625 -49.898438 27.296875 -48.140625 C 24.585938 -46.378906 22.472656 -43.984375 20.953125 -40.953125 C 19.441406 -37.921875 18.6875 -34.445312 18.6875 -30.53125 C 18.6875 -26.539062 19.441406 -23.03125 20.953125 -20 C 22.472656 -16.96875 24.609375 -14.59375 27.359375 -12.875 C 30.117188 -11.15625 33.210938 -10.296875 36.640625 -10.296875 Z M 36.640625 -10.296875 "/></g></g></g><g fill="#ffffff" fill-opacity="1"><g transform="translate(188.617226, 134.048925)"><g><path d="M 37.359375 1.4375 C 31.054688 1.4375 25.46875 0.0195312 20.59375 -2.8125 C 15.726562 -5.644531 11.878906 -9.476562 9.046875 -14.3125 C 6.210938 -19.144531 4.796875 -24.550781 4.796875 -30.53125 C 4.796875 -36.519531 6.210938 -41.925781 9.046875 -46.75 C 11.878906 -51.582031 15.726562 -55.414062 20.59375 -58.25 C 25.46875 -61.09375 31.054688 -62.515625 37.359375 -62.515625 C 43.585938 -62.515625 49.132812 -61.09375 54 -58.25 C 58.875 -55.414062 62.726562 -51.601562 65.5625 -46.8125 C 68.394531 -42.03125 69.8125 -36.601562 69.8125 -30.53125 C 69.8125 -24.550781 68.394531 -19.144531 65.5625 -14.3125 C 62.726562 -9.476562 58.875 -5.644531 54 -2.8125 C 49.132812 0.0195312 43.585938 1.4375 37.359375 1.4375 Z M 37.359375 -10.296875 C 41.109375 -10.296875 44.378906 -11.191406 47.171875 -12.984375 C 49.972656 -14.785156 52.128906 -17.203125 53.640625 -20.234375 C 55.160156 -23.265625 55.921875 -26.695312 55.921875 -30.53125 C 55.921875 -34.289062 55.160156 -37.707031 53.640625 -40.78125 C 52.128906 -43.851562 49.972656 -46.285156 47.171875 -48.078125 C 44.378906 -49.878906 41.109375 -50.78125 37.359375 -50.78125 C 33.523438 -50.78125 30.226562 -49.878906 27.46875 -48.078125 C 24.71875 -46.285156 22.566406 -43.867188 21.015625 -40.828125 C 19.460938 -37.796875 18.6875 -34.363281 18.6875 -30.53125 C 18.6875 -26.78125 19.460938 -23.367188 21.015625 -20.296875 C 22.566406 -17.222656 24.71875 -14.785156 27.46875 -12.984375 C 30.226562 -11.191406 33.523438 -10.296875 37.359375 -10.296875 Z M 37.359375 -10.296875 "/></g></g></g></g></g><g clip-path="url(#9fdd1ef062)"><g transform="matrix(1, 0, 0, 1, 0, 69)"><g clip-path="url(#7077f17e1f)"><g clip-path="url(#2fd3d7d905)"><g fill="#ffffff" fill-opacity="1"><g transform="translate(0.84036, 136.764724)"><g/></g></g></g><g fill="#ffffff" fill-opacity="1"><g transform="translate(24.672799, 136.764724)"><g><path d="M 37.484375 1.4375 C 31.253906 1.4375 25.601562 0.0625 20.53125 -2.6875 C 15.46875 -5.445312 11.414062 -9.257812 8.375 -14.125 C 5.34375 -19 3.828125 -24.585938 3.828125 -30.890625 C 3.828125 -37.117188 5.34375 -42.664062 8.375 -47.53125 C 11.414062 -52.40625 15.488281 -56.21875 20.59375 -58.96875 C 25.707031 -61.726562 31.375 -63.109375 37.59375 -63.109375 C 43.820312 -63.109375 49.472656 -61.726562 54.546875 -58.96875 C 59.617188 -56.21875 63.648438 -52.40625 66.640625 -47.53125 C 69.628906 -42.664062 71.125 -37.117188 71.125 -30.890625 C 71.125 -24.585938 69.628906 -19 66.640625 -14.125 C 63.648438 -9.257812 59.617188 -5.445312 54.546875 -2.6875 C 49.472656 0.0625 43.785156 1.4375 37.484375 1.4375 Z M 37.484375 -17 C 40.035156 -17 42.289062 -17.597656 44.25 -18.796875 C 46.207031 -19.992188 47.703125 -21.648438 48.734375 -23.765625 C 49.773438 -25.878906 50.296875 -28.253906 50.296875 -30.890625 C 50.296875 -33.609375 49.773438 -36.003906 48.734375 -38.078125 C 47.703125 -40.148438 46.207031 -41.785156 44.25 -42.984375 C 42.289062 -44.179688 40.035156 -44.78125 37.484375 -44.78125 C 34.929688 -44.78125 32.695312 -44.179688 30.78125 -42.984375 C 28.863281 -41.785156 27.363281 -40.148438 26.28125 -38.078125 C 25.207031 -36.003906 24.671875 -33.609375 24.671875 -30.890625 C 24.671875 -28.253906 25.207031 -25.878906 26.28125 -23.765625 C 27.363281 -21.648438 28.863281 -19.992188 30.78125 -18.796875 C 32.695312 -17.597656 34.929688 -17 37.484375 -17 Z M 37.484375 -17 "/></g></g></g><g fill="#ffffff" fill-opacity="1"><g transform="translate(91.730954, 136.764724)"><g><path d="M 5.625 0 L 5.625 -43.109375 C 5.625 -48.859375 7.28125 -53.390625 10.59375 -56.703125 C 13.90625 -60.015625 18.515625 -61.671875 24.421875 -61.671875 L 43.34375 -61.671875 L 43.34375 -45.390625 L 30.78125 -45.390625 C 29.5 -45.390625 28.457031 -44.988281 27.65625 -44.1875 C 26.863281 -43.382812 26.46875 -42.347656 26.46875 -41.078125 L 26.46875 0 Z M 5.625 0 "/></g></g></g><g fill="#ffffff" fill-opacity="1"><g transform="translate(128.732569, 136.764724)"><g><path d="M 37.59375 1.5625 C 32.40625 1.5625 27.753906 0.742188 23.640625 -0.890625 C 19.535156 -2.535156 16.003906 -4.851562 13.046875 -7.84375 C 10.097656 -10.832031 7.84375 -14.34375 6.28125 -18.375 C 4.726562 -22.40625 3.953125 -26.898438 3.953125 -31.859375 C 3.953125 -38.078125 5.226562 -43.519531 7.78125 -48.1875 C 10.332031 -52.863281 13.820312 -56.519531 18.25 -59.15625 C 22.6875 -61.789062 27.738281 -63.109375 33.40625 -63.109375 C 35.726562 -63.109375 37.90625 -62.847656 39.9375 -62.328125 C 41.96875 -61.804688 43.84375 -61.003906 45.5625 -59.921875 C 47.28125 -58.847656 48.738281 -57.515625 49.9375 -55.921875 L 50.421875 -55.921875 L 50.421875 -87.421875 L 71.25 -87.421875 L 71.25 -31.96875 C 71.25 -25.1875 69.851562 -19.300781 67.0625 -14.3125 C 64.269531 -9.320312 60.359375 -5.425781 55.328125 -2.625 C 50.296875 0.164062 44.382812 1.5625 37.59375 1.5625 Z M 37.59375 -16.53125 C 40.15625 -16.53125 42.351562 -17.144531 44.1875 -18.375 C 46.019531 -19.613281 47.457031 -21.3125 48.5 -23.46875 C 49.539062 -25.625 50.0625 -28.0625 50.0625 -30.78125 C 50.0625 -33.414062 49.539062 -35.769531 48.5 -37.84375 C 47.457031 -39.914062 46.019531 -41.570312 44.1875 -42.8125 C 42.351562 -44.050781 40.15625 -44.671875 37.59375 -44.671875 C 35.125 -44.671875 32.953125 -44.050781 31.078125 -42.8125 C 29.203125 -41.570312 27.742188 -39.914062 26.703125 -37.84375 C 25.660156 -35.769531 25.140625 -33.414062 25.140625 -30.78125 C 25.140625 -28.0625 25.660156 -25.625 26.703125 -23.46875 C 27.742188 -21.3125 29.203125 -19.613281 31.078125 -18.375 C 32.953125 -17.144531 35.125 -16.53125 37.59375 -16.53125 Z M 37.59375 -16.53125 "/></g></g></g><g fill="#ffffff" fill-opacity="1"><g transform="translate(197.706677, 136.764724)"><g><path d="M 39.390625 0 C 32.453125 0 26.328125 -1.234375 21.015625 -3.703125 C 15.703125 -6.179688 11.507812 -9.734375 8.4375 -14.359375 C 5.363281 -18.992188 3.828125 -24.46875 3.828125 -30.78125 C 3.828125 -37.800781 5.300781 -43.707031 8.25 -48.5 C 11.207031 -53.289062 15.117188 -56.921875 19.984375 -59.390625 C 24.859375 -61.867188 30.09375 -63.109375 35.6875 -63.109375 C 41.75 -63.109375 46.992188 -61.847656 51.421875 -59.328125 C 55.859375 -56.816406 59.296875 -53.285156 61.734375 -48.734375 C 64.171875 -44.179688 65.390625 -38.875 65.390625 -32.8125 C 65.390625 -31.53125 65.328125 -30.070312 65.203125 -28.4375 C 65.085938 -26.800781 64.867188 -25.425781 64.546875 -24.3125 L 25.390625 -24.3125 C 25.867188 -22.550781 26.644531 -21.09375 27.71875 -19.9375 C 28.800781 -18.78125 30.238281 -17.921875 32.03125 -17.359375 C 33.832031 -16.804688 35.890625 -16.53125 38.203125 -16.53125 L 58.5625 -16.53125 L 58.5625 0 Z M 24.671875 -36.40625 L 45.75 -36.40625 C 45.75 -37.601562 45.585938 -38.695312 45.265625 -39.6875 C 44.941406 -40.6875 44.5 -41.625 43.9375 -42.5 C 43.382812 -43.382812 42.707031 -44.144531 41.90625 -44.78125 C 41.113281 -45.425781 40.15625 -45.90625 39.03125 -46.21875 C 37.914062 -46.539062 36.722656 -46.703125 35.453125 -46.703125 C 33.773438 -46.703125 32.296875 -46.421875 31.015625 -45.859375 C 29.734375 -45.304688 28.65625 -44.566406 27.78125 -43.640625 C 26.90625 -42.722656 26.207031 -41.644531 25.6875 -40.40625 C 25.164062 -39.175781 24.828125 -37.84375 24.671875 -36.40625 Z M 24.671875 -36.40625 "/></g></g></g><g fill="#ffffff" fill-opacity="1"><g transform="translate(258.897222, 136.764724)"><g><path d="M 5.984375 0 L 5.984375 -35.453125 C 5.984375 -40.710938 7.28125 -45.4375 9.875 -49.625 C 12.46875 -53.820312 16.140625 -57.117188 20.890625 -59.515625 C 25.640625 -61.910156 31.207031 -63.109375 37.59375 -63.109375 C 43.988281 -63.109375 49.5 -61.910156 54.125 -59.515625 C 58.757812 -57.117188 62.3125 -53.820312 64.78125 -49.625 C 67.257812 -45.4375 68.5 -40.710938 68.5 -35.453125 L 68.5 0 L 47.65625 0 L 47.65625 -34.484375 C 47.65625 -36.328125 47.21875 -38.023438 46.34375 -39.578125 C 45.46875 -41.128906 44.25 -42.382812 42.6875 -43.34375 C 41.132812 -44.300781 39.320312 -44.78125 37.25 -44.78125 C 35.25 -44.78125 33.429688 -44.300781 31.796875 -43.34375 C 30.160156 -42.382812 28.898438 -41.128906 28.015625 -39.578125 C 27.140625 -38.023438 26.703125 -36.328125 26.703125 -34.484375 L 26.703125 0 Z M 5.984375 0 "/></g></g></g></g></g></g><g transform="matrix(1, 0, 0, 1, 289, 97)"><g clip-path="url(#ea977ebd8b)"><g fill="#ffffff" fill-opacity="1"><g transform="translate(0.8257, 36.586398)"><g><path d="M 10.1875 0 C 8.375 0 6.78125 -0.335938 5.40625 -1.015625 C 4.03125 -1.691406 2.960938 -2.628906 2.203125 -3.828125 C 1.441406 -5.023438 1.0625 -6.414062 1.0625 -8 C 1.0625 -9.75 1.425781 -11.25 2.15625 -12.5 C 2.882812 -13.75 3.859375 -14.710938 5.078125 -15.390625 C 6.296875 -16.078125 7.644531 -16.421875 9.125 -16.421875 C 10.8125 -16.421875 12.222656 -16.0625 13.359375 -15.34375 C 14.492188 -14.632812 15.351562 -13.671875 15.9375 -12.453125 C 16.53125 -11.234375 16.828125 -9.84375 16.828125 -8.28125 C 16.828125 -8.007812 16.8125 -7.691406 16.78125 -7.328125 C 16.75 -6.960938 16.710938 -6.675781 16.671875 -6.46875 L 6.15625 -6.46875 C 6.28125 -5.925781 6.519531 -5.46875 6.875 -5.09375 C 7.226562 -4.71875 7.675781 -4.441406 8.21875 -4.265625 C 8.757812 -4.085938 9.363281 -4 10.03125 -4 L 14.9375 -4 L 14.9375 0 Z M 6.03125 -9.5 L 12.125 -9.5 C 12.082031 -9.832031 12.019531 -10.15625 11.9375 -10.46875 C 11.851562 -10.78125 11.722656 -11.054688 11.546875 -11.296875 C 11.367188 -11.535156 11.164062 -11.742188 10.9375 -11.921875 C 10.707031 -12.097656 10.441406 -12.238281 10.140625 -12.34375 C 9.835938 -12.445312 9.5 -12.5 9.125 -12.5 C 8.644531 -12.5 8.21875 -12.414062 7.84375 -12.25 C 7.46875 -12.082031 7.15625 -11.859375 6.90625 -11.578125 C 6.65625 -11.296875 6.460938 -10.972656 6.328125 -10.609375 C 6.191406 -10.242188 6.09375 -9.875 6.03125 -9.5 Z M 6.03125 -9.5 "/></g></g></g><g fill="#ffffff" fill-opacity="1"><g transform="translate(18.426039, 36.586398)"><g><path d="M 1.8125 0 L 1.8125 -9.21875 C 1.8125 -10.550781 2.132812 -11.757812 2.78125 -12.84375 C 3.425781 -13.925781 4.347656 -14.789062 5.546875 -15.4375 C 6.742188 -16.09375 8.164062 -16.421875 9.8125 -16.421875 C 11.476562 -16.421875 12.898438 -16.09375 14.078125 -15.4375 C 15.265625 -14.789062 16.171875 -13.925781 16.796875 -12.84375 C 17.421875 -11.757812 17.734375 -10.550781 17.734375 -9.21875 L 17.734375 0 L 12.875 0 L 12.875 -9.09375 C 12.875 -9.65625 12.738281 -10.171875 12.46875 -10.640625 C 12.195312 -11.109375 11.828125 -11.484375 11.359375 -11.765625 C 10.890625 -12.046875 10.363281 -12.1875 9.78125 -12.1875 C 9.175781 -12.1875 8.640625 -12.046875 8.171875 -11.765625 C 7.703125 -11.484375 7.332031 -11.109375 7.0625 -10.640625 C 6.789062 -10.171875 6.65625 -9.65625 6.65625 -9.09375 L 6.65625 0 Z M 1.8125 0 "/></g></g></g></g></g></g></g></svg>