<svg xmlns="http://www.w3.org/2000/svg" xmlns:xlink="http://www.w3.org/1999/xlink" width="500" zoomAndPan="magnify" viewBox="0 0 375 270" height="350" preserveAspectRatio="xMidYMid meet" version="1.0"><defs><g/><clipPath id="6f2d405f92"><path d="M 36 0.320312 L 276 0.320312 L 276 177 L 36 177 Z M 36 0.320312 " clip-rule="nonzero"/></clipPath><clipPath id="59306f0d3a"><path d="M 178 69 L 239.800781 69 L 239.800781 129 L 178 129 Z M 178 69 " clip-rule="nonzero"/></clipPath><clipPath id="2f8b375889"><rect x="0" width="240" y="0" height="177"/></clipPath><clipPath id="3addef7d4c"><path d="M 0.519531 66 L 319 66 L 319 242.960938 L 0.519531 242.960938 Z M 0.519531 66 " clip-rule="nonzero"/></clipPath><clipPath id="b6036c1e2c"><path d="M 0.519531 127 L 1 127 L 1 128 L 0.519531 128 Z M 0.519531 127 " clip-rule="nonzero"/></clipPath><clipPath id="4238bd538b"><rect x="0" width="319" y="0" height="177"/></clipPath><clipPath id="8e0f000d7a"><rect x="0" width="36" y="0" height="47"/></clipPath><clipPath id="691d0e5964"><rect x="0" width="319" y="0" height="243"/></clipPath></defs><g transform="matrix(1, 0, 0, 1, 17, 4)"><g clip-path="url(#691d0e5964)"><g clip-path="url(#6f2d405f92)"><g transform="matrix(1, 0, 0, 1, 36, 0)"><g clip-path="url(#2f8b375889)"><g fill="#ffffff" fill-opacity="1"><g transform="translate(0.603296, 127.049741)"><g><path d="M 27.1875 0 C 22.15625 0 18.210938 -1.441406 15.359375 -4.328125 C 12.515625 -7.210938 11.09375 -11.132812 11.09375 -16.09375 L 11.09375 -70.8125 L 23.75 -70.8125 L 23.75 -16.640625 C 23.75 -14.941406 24.265625 -13.554688 25.296875 -12.484375 C 26.335938 -11.410156 27.707031 -10.875 29.40625 -10.875 L 41.28125 -10.875 L 41.28125 0 Z M 1.328125 -45.71875 L 1.328125 -56.609375 L 41.390625 -56.609375 L 41.390625 -45.71875 Z M 1.328125 -45.71875 "/></g></g></g><g fill="#ffffff" fill-opacity="1"><g transform="translate(42.445298, 127.049741)"><g><path d="M 34.625 1.328125 C 28.78125 1.328125 23.597656 0.015625 19.078125 -2.609375 C 14.566406 -5.234375 11 -8.785156 8.375 -13.265625 C 5.75 -17.742188 4.4375 -22.753906 4.4375 -28.296875 C 4.4375 -33.847656 5.75 -38.859375 8.375 -43.328125 C 11 -47.804688 14.566406 -51.359375 19.078125 -53.984375 C 23.597656 -56.617188 28.78125 -57.9375 34.625 -57.9375 C 40.394531 -57.9375 45.535156 -56.617188 50.046875 -53.984375 C 54.566406 -51.359375 58.140625 -47.828125 60.765625 -43.390625 C 63.390625 -38.953125 64.703125 -33.921875 64.703125 -28.296875 C 64.703125 -22.753906 63.390625 -17.742188 60.765625 -13.265625 C 58.140625 -8.785156 54.566406 -5.234375 50.046875 -2.609375 C 45.535156 0.015625 40.394531 1.328125 34.625 1.328125 Z M 34.625 -9.546875 C 38.101562 -9.546875 41.132812 -10.375 43.71875 -12.03125 C 46.3125 -13.695312 48.3125 -15.9375 49.71875 -18.75 C 51.125 -21.5625 51.828125 -24.742188 51.828125 -28.296875 C 51.828125 -31.773438 51.125 -34.9375 49.71875 -37.78125 C 48.3125 -40.632812 46.3125 -42.894531 43.71875 -44.5625 C 41.132812 -46.226562 38.101562 -47.0625 34.625 -47.0625 C 31.070312 -47.0625 28.019531 -46.226562 25.46875 -44.5625 C 22.914062 -42.894531 20.914062 -40.65625 19.46875 -37.84375 C 18.03125 -35.03125 17.3125 -31.847656 17.3125 -28.296875 C 17.3125 -24.816406 18.03125 -21.648438 19.46875 -18.796875 C 20.914062 -15.953125 22.914062 -13.695312 25.46875 -12.03125 C 28.019531 -10.375 31.070312 -9.546875 34.625 -9.546875 Z M 34.625 -9.546875 "/></g></g></g><g fill="#ffffff" fill-opacity="1"><g transform="translate(107.705601, 127.049741)"><g><path d="M 33.96875 1.328125 C 29.445312 1.328125 25.351562 0.609375 21.6875 -0.828125 C 18.03125 -2.273438 14.925781 -4.363281 12.375 -7.09375 C 9.820312 -9.832031 7.859375 -13.070312 6.484375 -16.8125 C 5.117188 -20.550781 4.4375 -24.675781 4.4375 -29.1875 C 4.4375 -34.957031 5.601562 -39.988281 7.9375 -44.28125 C 10.269531 -48.570312 13.503906 -51.921875 17.640625 -54.328125 C 21.785156 -56.734375 26.523438 -57.9375 31.859375 -57.9375 C 34.515625 -57.9375 37.023438 -57.523438 39.390625 -56.703125 C 41.765625 -55.890625 43.910156 -54.742188 45.828125 -53.265625 C 47.753906 -51.785156 49.3125 -50.050781 50.5 -48.0625 L 50.609375 -48.0625 L 50.609375 -81.015625 L 63.375 -81.015625 L 63.375 -28.96875 C 63.375 -22.75 62.132812 -17.363281 59.65625 -12.8125 C 57.175781 -8.269531 53.734375 -4.773438 49.328125 -2.328125 C 44.929688 0.109375 39.8125 1.328125 33.96875 1.328125 Z M 33.96875 -9.546875 C 37.21875 -9.546875 40.082031 -10.335938 42.5625 -11.921875 C 45.039062 -13.515625 46.984375 -15.71875 48.390625 -18.53125 C 49.796875 -21.34375 50.5 -24.597656 50.5 -28.296875 C 50.5 -31.992188 49.796875 -35.25 48.390625 -38.0625 C 46.984375 -40.875 45.039062 -43.078125 42.5625 -44.671875 C 40.082031 -46.265625 37.175781 -47.0625 33.84375 -47.0625 C 30.664062 -47.0625 27.816406 -46.242188 25.296875 -44.609375 C 22.785156 -42.984375 20.828125 -40.765625 19.421875 -37.953125 C 18.015625 -35.140625 17.3125 -31.921875 17.3125 -28.296875 C 17.3125 -24.597656 18.015625 -21.34375 19.421875 -18.53125 C 20.828125 -15.71875 22.804688 -13.515625 25.359375 -11.921875 C 27.910156 -10.335938 30.78125 -9.546875 33.96875 -9.546875 Z M 33.96875 -9.546875 "/></g></g></g><g clip-path="url(#59306f0d3a)"><g fill="#ffffff" fill-opacity="1"><g transform="translate(174.408749, 127.049741)"><g><path d="M 34.625 1.328125 C 28.78125 1.328125 23.597656 0.015625 19.078125 -2.609375 C 14.566406 -5.234375 11 -8.785156 8.375 -13.265625 C 5.75 -17.742188 4.4375 -22.753906 4.4375 -28.296875 C 4.4375 -33.847656 5.75 -38.859375 8.375 -43.328125 C 11 -47.804688 14.566406 -51.359375 19.078125 -53.984375 C 23.597656 -56.617188 28.78125 -57.9375 34.625 -57.9375 C 40.394531 -57.9375 45.535156 -56.617188 50.046875 -53.984375 C 54.566406 -51.359375 58.140625 -47.828125 60.765625 -43.390625 C 63.390625 -38.953125 64.703125 -33.921875 64.703125 -28.296875 C 64.703125 -22.753906 63.390625 -17.742188 60.765625 -13.265625 C 58.140625 -8.785156 54.566406 -5.234375 50.046875 -2.609375 C 45.535156 0.015625 40.394531 1.328125 34.625 1.328125 Z M 34.625 -9.546875 C 38.101562 -9.546875 41.132812 -10.375 43.71875 -12.03125 C 46.3125 -13.695312 48.3125 -15.9375 49.71875 -18.75 C 51.125 -21.5625 51.828125 -24.742188 51.828125 -28.296875 C 51.828125 -31.773438 51.125 -34.9375 49.71875 -37.78125 C 48.3125 -40.632812 46.3125 -42.894531 43.71875 -44.5625 C 41.132812 -46.226562 38.101562 -47.0625 34.625 -47.0625 C 31.070312 -47.0625 28.019531 -46.226562 25.46875 -44.5625 C 22.914062 -42.894531 20.914062 -40.65625 19.46875 -37.84375 C 18.03125 -35.03125 17.3125 -31.847656 17.3125 -28.296875 C 17.3125 -24.816406 18.03125 -21.648438 19.46875 -18.796875 C 20.914062 -15.953125 22.914062 -13.695312 25.46875 -12.03125 C 28.019531 -10.375 31.070312 -9.546875 34.625 -9.546875 Z M 34.625 -9.546875 "/></g></g></g></g></g></g></g><g clip-path="url(#3addef7d4c)"><g transform="matrix(1, 0, 0, 1, 0, 66)"><g clip-path="url(#4238bd538b)"><g clip-path="url(#b6036c1e2c)"><g fill="#ffffff" fill-opacity="1"><g transform="translate(0.866359, 127.050378)"><g/></g></g></g><g fill="#ffffff" fill-opacity="1"><g transform="translate(25.841959, 127.050378)"><g><path d="M 34.734375 1.328125 C 28.960938 1.328125 23.726562 0.0507812 19.03125 -2.5 C 14.332031 -5.050781 10.578125 -8.582031 7.765625 -13.09375 C 4.953125 -17.601562 3.546875 -22.785156 3.546875 -28.640625 C 3.546875 -34.410156 4.953125 -39.550781 7.765625 -44.0625 C 10.578125 -48.570312 14.347656 -52.101562 19.078125 -54.65625 C 23.816406 -57.207031 29.070312 -58.484375 34.84375 -58.484375 C 40.613281 -58.484375 45.847656 -57.207031 50.546875 -54.65625 C 55.242188 -52.101562 58.976562 -48.570312 61.75 -44.0625 C 64.53125 -39.550781 65.921875 -34.410156 65.921875 -28.640625 C 65.921875 -22.785156 64.53125 -17.601562 61.75 -13.09375 C 58.976562 -8.582031 55.242188 -5.050781 50.546875 -2.5 C 45.847656 0.0507812 40.578125 1.328125 34.734375 1.328125 Z M 34.734375 -15.765625 C 37.109375 -15.765625 39.203125 -16.316406 41.015625 -17.421875 C 42.828125 -18.535156 44.210938 -20.070312 45.171875 -22.03125 C 46.128906 -23.988281 46.609375 -26.191406 46.609375 -28.640625 C 46.609375 -31.148438 46.128906 -33.363281 45.171875 -35.28125 C 44.210938 -37.207031 42.828125 -38.726562 41.015625 -39.84375 C 39.203125 -40.957031 37.109375 -41.515625 34.734375 -41.515625 C 32.367188 -41.515625 30.296875 -40.957031 28.515625 -39.84375 C 26.742188 -38.726562 25.359375 -37.207031 24.359375 -35.28125 C 23.359375 -33.363281 22.859375 -31.148438 22.859375 -28.640625 C 22.859375 -26.191406 23.359375 -23.988281 24.359375 -22.03125 C 25.359375 -20.070312 26.742188 -18.535156 28.515625 -17.421875 C 30.296875 -16.316406 32.367188 -15.765625 34.734375 -15.765625 Z M 34.734375 -15.765625 "/></g></g></g><g fill="#ffffff" fill-opacity="1"><g transform="translate(90.880325, 127.050378)"><g><path d="M 5.21875 0 L 5.21875 -39.953125 C 5.21875 -45.273438 6.75 -49.472656 9.8125 -52.546875 C 12.882812 -55.617188 17.160156 -57.15625 22.640625 -57.15625 L 40.171875 -57.15625 L 40.171875 -42.0625 L 28.515625 -42.0625 C 27.335938 -42.0625 26.378906 -41.691406 25.640625 -40.953125 C 24.898438 -40.210938 24.53125 -39.25 24.53125 -38.0625 L 24.53125 0 Z M 5.21875 0 "/></g></g></g><g fill="#ffffff" fill-opacity="1"><g transform="translate(128.060901, 127.050378)"><g><path d="M 34.84375 1.4375 C 30.039062 1.4375 25.734375 0.679688 21.921875 -0.828125 C 18.109375 -2.347656 14.832031 -4.492188 12.09375 -7.265625 C 9.351562 -10.046875 7.257812 -13.300781 5.8125 -17.03125 C 4.375 -20.769531 3.65625 -24.929688 3.65625 -29.515625 C 3.65625 -35.285156 4.835938 -40.332031 7.203125 -44.65625 C 9.578125 -48.988281 12.816406 -52.375 16.921875 -54.8125 C 21.023438 -57.257812 25.707031 -58.484375 30.96875 -58.484375 C 33.113281 -58.484375 35.128906 -58.242188 37.015625 -57.765625 C 38.898438 -57.285156 40.632812 -56.546875 42.21875 -55.546875 C 43.8125 -54.546875 45.164062 -53.304688 46.28125 -51.828125 L 46.71875 -51.828125 L 46.71875 -81.015625 L 66.03125 -81.015625 L 66.03125 -29.640625 C 66.03125 -23.347656 64.734375 -17.890625 62.140625 -13.265625 C 59.554688 -8.640625 55.929688 -5.03125 51.265625 -2.4375 C 46.609375 0.144531 41.132812 1.4375 34.84375 1.4375 Z M 34.84375 -15.3125 C 37.21875 -15.3125 39.253906 -15.882812 40.953125 -17.03125 C 42.648438 -18.175781 43.976562 -19.75 44.9375 -21.75 C 45.90625 -23.75 46.390625 -26.003906 46.390625 -28.515625 C 46.390625 -30.960938 45.90625 -33.144531 44.9375 -35.0625 C 43.976562 -36.988281 42.648438 -38.523438 40.953125 -39.671875 C 39.253906 -40.816406 37.21875 -41.390625 34.84375 -41.390625 C 32.550781 -41.390625 30.535156 -40.816406 28.796875 -39.671875 C 27.054688 -38.523438 25.707031 -36.988281 24.75 -35.0625 C 23.789062 -33.144531 23.3125 -30.960938 23.3125 -28.515625 C 23.3125 -26.003906 23.789062 -23.75 24.75 -21.75 C 25.707031 -19.75 27.054688 -18.175781 28.796875 -17.03125 C 30.535156 -15.882812 32.550781 -15.3125 34.84375 -15.3125 Z M 34.84375 -15.3125 "/></g></g></g><g fill="#ffffff" fill-opacity="1"><g transform="translate(194.875054, 127.050378)"><g><path d="M 36.515625 0 C 30.078125 0 24.394531 -1.144531 19.46875 -3.4375 C 14.550781 -5.726562 10.664062 -9.019531 7.8125 -13.3125 C 4.96875 -17.601562 3.546875 -22.671875 3.546875 -28.515625 C 3.546875 -35.035156 4.914062 -40.515625 7.65625 -44.953125 C 10.394531 -49.390625 14.019531 -52.753906 18.53125 -55.046875 C 23.039062 -57.335938 27.890625 -58.484375 33.078125 -58.484375 C 38.703125 -58.484375 43.566406 -57.316406 47.671875 -54.984375 C 51.773438 -52.660156 54.953125 -49.390625 57.203125 -45.171875 C 59.460938 -40.953125 60.59375 -36.03125 60.59375 -30.40625 C 60.59375 -29.226562 60.535156 -27.878906 60.421875 -26.359375 C 60.316406 -24.835938 60.117188 -23.5625 59.828125 -22.53125 L 23.53125 -22.53125 C 23.96875 -20.90625 24.6875 -19.554688 25.6875 -18.484375 C 26.6875 -17.410156 28.019531 -16.613281 29.6875 -16.09375 C 31.351562 -15.570312 33.257812 -15.3125 35.40625 -15.3125 L 54.265625 -15.3125 L 54.265625 0 Z M 22.859375 -33.734375 L 42.390625 -33.734375 C 42.390625 -34.847656 42.242188 -35.863281 41.953125 -36.78125 C 41.660156 -37.707031 41.253906 -38.578125 40.734375 -39.390625 C 40.210938 -40.210938 39.582031 -40.914062 38.84375 -41.5 C 38.101562 -42.09375 37.210938 -42.535156 36.171875 -42.828125 C 35.140625 -43.128906 34.03125 -43.28125 32.84375 -43.28125 C 31.289062 -43.28125 29.921875 -43.019531 28.734375 -42.5 C 27.554688 -41.988281 26.5625 -41.304688 25.75 -40.453125 C 24.9375 -39.597656 24.285156 -38.597656 23.796875 -37.453125 C 23.316406 -36.304688 23.003906 -35.066406 22.859375 -33.734375 Z M 22.859375 -33.734375 "/></g></g></g><g fill="#ffffff" fill-opacity="1"><g transform="translate(254.475056, 127.050378)"><g><path d="M 5.546875 0 L 5.546875 -32.84375 C 5.546875 -37.726562 6.75 -42.113281 9.15625 -46 C 11.5625 -49.882812 14.960938 -52.9375 19.359375 -55.15625 C 23.765625 -57.375 28.925781 -58.484375 34.84375 -58.484375 C 40.769531 -58.484375 45.878906 -57.375 50.171875 -55.15625 C 54.460938 -52.9375 57.753906 -49.882812 60.046875 -46 C 62.335938 -42.113281 63.484375 -37.726562 63.484375 -32.84375 L 63.484375 0 L 44.171875 0 L 44.171875 -31.96875 C 44.171875 -33.664062 43.765625 -35.234375 42.953125 -36.671875 C 42.140625 -38.117188 41.007812 -39.285156 39.5625 -40.171875 C 38.125 -41.066406 36.441406 -41.515625 34.515625 -41.515625 C 32.660156 -41.515625 30.972656 -41.066406 29.453125 -40.171875 C 27.941406 -39.285156 26.78125 -38.117188 25.96875 -36.671875 C 25.15625 -35.234375 24.75 -33.664062 24.75 -31.96875 L 24.75 0 Z M 5.546875 0 "/></g></g></g></g></g></g><g transform="matrix(1, 0, 0, 1, 277, 93)"><g clip-path="url(#8e0f000d7a)"><g fill="#ffffff" fill-opacity="1"><g transform="translate(0.33491, 33.621075)"><g><path d="M 9.453125 0 C 7.765625 0 6.28125 -0.3125 5 -0.9375 C 3.726562 -1.570312 2.738281 -2.441406 2.03125 -3.546875 C 1.332031 -4.660156 0.984375 -5.953125 0.984375 -7.421875 C 0.984375 -9.046875 1.320312 -10.4375 2 -11.59375 C 2.675781 -12.75 3.578125 -13.640625 4.703125 -14.265625 C 5.835938 -14.898438 7.09375 -15.21875 8.46875 -15.21875 C 10.03125 -15.21875 11.335938 -14.890625 12.390625 -14.234375 C 13.441406 -13.578125 14.238281 -12.679688 14.78125 -11.546875 C 15.320312 -10.421875 15.59375 -9.132812 15.59375 -7.6875 C 15.59375 -7.425781 15.578125 -7.128906 15.546875 -6.796875 C 15.515625 -6.460938 15.484375 -6.195312 15.453125 -6 L 5.703125 -6 C 5.828125 -5.5 6.050781 -5.070312 6.375 -4.71875 C 6.707031 -4.375 7.125 -4.117188 7.625 -3.953125 C 8.125 -3.785156 8.679688 -3.703125 9.296875 -3.703125 L 13.859375 -3.703125 L 13.859375 0 Z M 5.59375 -8.8125 L 11.25 -8.8125 C 11.207031 -9.125 11.144531 -9.421875 11.0625 -9.703125 C 10.988281 -9.992188 10.867188 -10.25 10.703125 -10.46875 C 10.546875 -10.695312 10.359375 -10.890625 10.140625 -11.046875 C 9.929688 -11.210938 9.6875 -11.34375 9.40625 -11.4375 C 9.125 -11.539062 8.8125 -11.59375 8.46875 -11.59375 C 8.019531 -11.59375 7.617188 -11.515625 7.265625 -11.359375 C 6.921875 -11.203125 6.632812 -10.992188 6.40625 -10.734375 C 6.175781 -10.472656 6 -10.171875 5.875 -9.828125 C 5.75 -9.492188 5.65625 -9.15625 5.59375 -8.8125 Z M 5.59375 -8.8125 "/></g></g></g><g fill="#ffffff" fill-opacity="1"><g transform="translate(16.647719, 33.621075)"><g><path d="M 1.6875 0 L 1.6875 -8.546875 C 1.6875 -9.785156 1.984375 -10.90625 2.578125 -11.90625 C 3.179688 -12.914062 4.035156 -13.71875 5.140625 -14.3125 C 6.253906 -14.914062 7.570312 -15.21875 9.09375 -15.21875 C 10.644531 -15.21875 11.960938 -14.914062 13.046875 -14.3125 C 14.140625 -13.71875 14.976562 -12.914062 15.5625 -11.90625 C 16.144531 -10.90625 16.4375 -9.785156 16.4375 -8.546875 L 16.4375 0 L 11.9375 0 L 11.9375 -8.4375 C 11.9375 -8.957031 11.8125 -9.429688 11.5625 -9.859375 C 11.3125 -10.296875 10.96875 -10.644531 10.53125 -10.90625 C 10.101562 -11.164062 9.617188 -11.296875 9.078125 -11.296875 C 8.515625 -11.296875 8.015625 -11.164062 7.578125 -10.90625 C 7.140625 -10.644531 6.796875 -10.296875 6.546875 -9.859375 C 6.296875 -9.429688 6.171875 -8.957031 6.171875 -8.4375 L 6.171875 0 Z M 1.6875 0 "/></g></g></g></g></g></g></g></svg>